<svg width="25" height="26" viewBox="0 0 25 26" fill="none" xmlns="http://www.w3.org/2000/svg">
<path fill-rule="evenodd" clip-rule="evenodd" d="M1.15627 0.966418C1.03815 1.23392 0.9729 1.56168 0.9729 1.94294V24.0589C0.9729 24.441 1.03823 24.7688 1.15648 25.0362L13.1904 13.0006L1.15627 0.966418ZM1.85149 25.7554C2.29754 25.9463 2.87941 25.8858 3.5139 25.5259L17.671 17.4812L13.8975 13.7077L1.85149 25.7554ZM18.5734 16.9694L23.0149 14.4459C24.4119 13.6509 24.4119 12.3519 23.0149 11.5579L18.5715 9.03306L14.6046 13.0005L18.5734 16.9694ZM17.6697 8.52065L3.5139 0.476945C2.87937 0.116367 2.29747 0.0562038 1.8514 0.247342L13.8975 12.2934L17.6697 8.52065Z" fill="black"/>
</svg>
